<svg width="20" height="16" viewBox="0 0 20 16" fill="none" xmlns="http://www.w3.org/2000/svg">
<path d="M16.9312 1.85133C15.6562 1.27485 14.2896 0.848757 12.8604 0.606469C12.8477 0.604019 12.8345 0.605598 12.8227 0.610986C12.8109 0.616375 12.8011 0.625307 12.7946 0.636546C12.6196 0.944836 12.4246 1.3467 12.2879 1.66418C10.7721 1.43713 9.23116 1.43713 7.7154 1.66418C7.56318 1.31233 7.39152 0.969252 7.20123 0.636546C7.19478 0.625169 7.18503 0.616035 7.17326 0.610362C7.1615 0.60469 7.14829 0.602748 7.1354 0.604798C5.70707 0.847086 4.3404 1.27318 3.06457 1.85049C3.05359 1.85511 3.04429 1.86298 3.0379 1.87305C0.444567 5.69535 -0.266266 9.42324 0.0829005 13.1043C0.0838721 13.1134 0.0866635 13.1221 0.0911046 13.13C0.0955458 13.1379 0.101544 13.1448 0.108734 13.1503C1.62239 14.2552 3.31068 15.0968 5.1029 15.64C5.11539 15.6439 5.12876 15.6439 5.14124 15.64C5.15373 15.6361 5.16476 15.6286 5.1729 15.6183C5.5579 15.1003 5.90123 14.5531 6.19457 13.9783C6.21207 13.9448 6.1954 13.9047 6.1604 13.8914C5.62207 13.6881 5.10047 13.4429 4.6004 13.1578C4.59141 13.1527 4.58384 13.1454 4.57836 13.1366C4.57289 13.1278 4.56967 13.1178 4.56901 13.1074C4.56835 13.0971 4.57026 13.0867 4.57458 13.0773C4.57889 13.0678 4.58548 13.0596 4.59373 13.0534C4.69873 12.9757 4.80373 12.8946 4.90373 12.8136C4.91274 12.8063 4.92358 12.8017 4.93505 12.8002C4.94653 12.7987 4.95819 12.8005 4.96873 12.8052C8.24123 14.279 11.7854 14.279 15.0196 12.8052C15.0301 12.8002 15.0419 12.7982 15.0536 12.7995C15.0652 12.8009 15.0762 12.8055 15.0854 12.8128C15.1854 12.8946 15.2896 12.9757 15.3954 13.0534C15.4037 13.0595 15.4104 13.0676 15.4149 13.0769C15.4193 13.0863 15.4214 13.0966 15.4209 13.1069C15.4204 13.1173 15.4174 13.1274 15.412 13.1362C15.4067 13.1451 15.3993 13.1525 15.3904 13.1578C14.8921 13.4452 14.3737 13.6883 13.8296 13.8905C13.8212 13.8936 13.8136 13.8984 13.8072 13.9046C13.8009 13.9108 13.7959 13.9183 13.7927 13.9266C13.7894 13.9349 13.788 13.9438 13.7885 13.9527C13.789 13.9616 13.7913 13.9703 13.7954 13.9783C14.0954 14.5522 14.4387 15.0986 14.8162 15.6175C14.8241 15.6281 14.835 15.6361 14.8475 15.6403C14.8601 15.6444 14.8736 15.6446 14.8862 15.6409C16.6815 15.0992 18.3726 14.2571 19.8879 13.1503C19.8953 13.1451 19.9015 13.1384 19.9061 13.1306C19.9107 13.1229 19.9136 13.1142 19.9146 13.1052C20.3312 8.84927 19.2162 5.15146 16.9571 1.87472C16.9515 1.86407 16.9424 1.85577 16.9312 1.85133ZM6.68373 10.8628C5.69873 10.8628 4.88623 9.96964 4.88623 8.87434C4.88623 7.77819 5.6829 6.8859 6.68373 6.8859C7.69207 6.8859 8.49707 7.78571 8.48123 8.87434C8.48123 9.97048 7.68457 10.8628 6.68373 10.8628ZM13.3296 10.8628C12.3437 10.8628 11.5321 9.96964 11.5321 8.87434C11.5321 7.77819 12.3279 6.8859 13.3296 6.8859C14.3379 6.8859 15.1429 7.78571 15.1271 8.87434C15.1271 9.97048 14.3387 10.8628 13.3296 10.8628Z" fill="white"/>
</svg>
